<?xml version="1.0" encoding="UTF-8"?>
<svg width="345px" height="100px" viewBox="0 0 345 100" version="1.1" xmlns="http://www.w3.org/2000/svg" xmlns:xlink="http://www.w3.org/1999/xlink">
    <title>Main / Logos / Autobahn</title>
    <defs>
        <polygon id="path-1" points="0 0.953322505 344.672967 0.953322505 344.672967 98.0784471 0 98.0784471"></polygon>
    </defs>
    <g id="Main-/-Logos-/-Autobahn" stroke="none" stroke-width="1" fill="none" fill-rule="evenodd">
        <g id="Logos-/-Autobahn.de" transform="translate(0.000000, 1.000000)">
            <polygon id="Fill-1" fill="#F8D200" points="53.7836703 54.7477893 53.7836703 53.0569169 79.5155317 53.0569169 79.5155317 56.9996705 53.7836703 56.9996705"></polygon>
            <polygon id="Fill-2" fill="#E30613" points="27.9221493 54.7477893 27.9221493 53.0569169 53.7834742 53.0569169 53.7834742 56.9996705 27.9221493 56.9996705"></polygon>
            <g id="Group-5" transform="translate(0.000000, 0.008246)">
                <mask id="mask-2" fill="white">
                    <use xlink:href="#path-1"></use>
                </mask>
                <g id="Clip-4"></g>
                <path d="M2.3203399,56.991424 L28.0502397,56.991424 L28.0502397,54.7395429 L28.0502397,53.0486704 L2.3203399,53.0486704 L2.3203399,56.991424 Z M325.77325,67.6603975 L325.77325,72.7977465 C327.462161,69.1354973 330.533978,67.3033919 334.98674,67.3033919 C337.978132,67.3033919 340.339861,68.2115984 342.073888,70.0221265 C343.805954,71.8346162 344.672967,74.3925021 344.672967,77.7016689 L344.672967,97.605709 L337.585819,97.605709 L337.585819,79.1767687 C337.585819,77.2073535 337.113081,75.7224458 336.167604,74.7181225 C335.222128,73.7118377 333.941224,73.209676 332.326852,73.209676 C330.477093,73.209676 328.921569,73.9295718 327.66028,75.3674019 C326.398991,76.8052319 325.77325,78.8629177 325.77325,81.5384978 L325.77325,97.605709 L318.68414,97.605709 L318.68414,67.6603975 L325.77325,67.6603975 Z M294.368532,55.8439062 L294.368532,72.7388995 C295.982903,69.1158816 299.035104,67.3033919 303.525136,67.3033919 C306.438065,67.3033919 308.791948,68.2214062 310.582861,70.05155 C312.375735,71.8816939 313.27021,74.5298119 313.27021,77.9959042 L313.27021,97.605709 L306.183061,97.605709 L306.183061,79.2356158 C306.183061,77.3466249 305.700516,75.8676019 304.735424,74.8044316 C303.770332,73.7432228 302.520812,73.209676 300.984904,73.209676 C299.290108,73.209676 297.765969,73.8628785 296.408563,75.1614371 C295.049196,76.4599958 294.368532,78.5863365 294.368532,81.5384978 L294.368532,97.605709 L287.281383,97.605709 L287.281383,55.8439062 L294.368532,55.8439062 Z M274.603763,84.7280089 L270.941514,84.7280089 C269.089793,84.7280089 267.67354,85.1124764 266.688832,85.8794498 C265.706086,86.6483848 265.213733,87.6232846 265.213733,88.8061107 C265.213733,91.3247652 266.669217,92.586054 269.582147,92.586054 C271.157286,92.586054 272.389152,92.1231238 273.273819,91.1953017 C274.160448,90.2714027 274.603763,89.0611146 274.603763,87.5644375 L274.603763,84.7280089 Z M260.07246,75.7518694 L260.07246,69.196306 C262.316495,67.817323 265.547199,67.1268507 269.760649,67.1268507 C277.871737,67.1268507 281.9263,70.9067941 281.9263,78.4686424 L281.9263,97.605709 L274.897998,97.605709 L274.897998,94.0023068 C273.520977,96.5641158 270.921898,97.8430588 267.102723,97.8430588 C264.266295,97.8430588 262.012452,97.0152767 260.339234,95.3597125 C258.664054,93.7061099 257.826464,91.6209621 257.826464,89.100346 C257.826464,86.2639173 258.889634,84.0414597 261.019898,82.4251269 C263.142316,80.8107557 266.216094,80.0045508 270.231426,80.0045508 L274.603763,80.0045508 L274.603763,78.1724454 C274.603763,76.5188428 274.170256,75.2595156 273.303243,74.3925021 C272.438191,73.5274502 270.96113,73.0939435 268.872059,73.0939435 C265.684509,73.0939435 262.751964,73.9786111 260.07246,75.7518694 L260.07246,75.7518694 Z M240.78043,91.9367747 C242.826346,91.9367747 244.538796,91.0874154 245.917779,89.3965429 C247.296762,87.7037089 247.987234,85.4969439 247.987234,82.7801709 C247.987234,79.7868167 247.286954,77.4545112 245.888355,75.7812929 C244.491718,74.106113 242.769461,73.2704847 240.721583,73.2704847 C238.791399,73.2704847 237.078949,74.0296118 235.582272,75.5459046 C234.085595,77.0602359 233.338237,79.3356558 233.338237,82.3662798 C233.338237,85.4773282 234.048325,87.8508266 235.464578,89.4848135 C236.882792,91.1168389 238.654089,91.9367747 240.78043,91.9367747 L240.78043,91.9367747 Z M233.338237,55.8439062 L233.338237,72.2073143 C235.423385,68.8981475 238.416739,67.2465064 242.316338,67.2465064 C246.05705,67.2465064 249.138675,68.6333357 251.559251,71.4089557 C253.979827,74.1865374 255.192077,77.9350956 255.192077,82.6624768 C255.192077,86.9131967 254.038674,90.5381761 251.735792,93.5295687 C249.43291,96.5229229 246.312054,98.0196 242.375185,98.0196 C238.436355,98.0196 235.423385,96.3463817 233.338237,92.9979835 L233.338237,97.605709 L226.192242,97.605709 L226.192242,55.8439062 L233.338237,55.8439062 Z M207.547529,72.9762493 C205.301532,72.9762493 203.579275,73.9001483 202.378795,75.7518694 C201.176353,77.6035905 200.578074,79.9260881 200.578074,82.7193623 C200.578074,85.4773282 201.186161,87.7802101 202.408218,89.6319312 C203.630276,91.4836523 205.362341,92.4075513 207.606376,92.4075513 C209.928874,92.4075513 211.682516,91.5013064 212.863381,89.6907783 C214.044245,87.8802501 214.634677,85.5754066 214.634677,82.7801709 C214.634677,79.9064724 214.063861,77.5525897 212.922228,75.7224458 C211.778633,73.8903404 209.985759,72.9762493 207.547529,72.9762493 L207.547529,72.9762493 Z M207.547529,98.0784471 C203.018266,98.0784471 199.48548,96.6602327 196.945249,93.823804 C194.403055,90.9912985 193.135882,87.3663191 193.135882,82.9567121 C193.135882,78.3901796 194.454056,74.6200441 197.092366,71.6463056 C199.728715,68.6725671 203.214423,67.1856978 207.547529,67.1856978 C212.153293,67.1856978 215.715502,68.6333357 218.23808,71.5266499 C220.756734,74.4219256 222.018023,78.0939827 222.018023,82.5447826 C222.018023,87.0720837 220.748888,90.79318 218.206694,93.7061099 C215.666463,96.6210013 212.114061,98.0784471 207.547529,98.0784471 L207.547529,98.0784471 Z M182.996532,72.9762493 L182.996532,88.2137169 C182.996532,89.4750057 183.329999,90.4283282 183.998894,91.0776075 C184.667789,91.7288484 185.595611,92.0544688 186.774514,92.0544688 C188.271191,92.0544688 189.648212,91.6405778 190.911463,90.8127957 L190.911463,96.895621 C189.530518,97.5664776 187.759221,97.8999443 185.595611,97.8999443 C179.138126,97.8999443 175.907422,94.6319704 175.907422,88.0960227 L175.907422,72.9762493 L171.41739,72.9762493 L171.41739,67.6603975 L175.907422,67.6603975 L175.907422,60.4516316 L182.996532,60.4516316 L182.996532,67.6603975 L190.438725,67.6603975 L190.438725,72.9762493 L182.996532,72.9762493 Z M161.511467,67.6603975 L168.661386,67.6603975 L168.661386,97.605709 L161.511467,97.605709 L161.511467,92.7037482 C159.934366,96.1678789 156.864511,97.8999443 152.297978,97.8999443 C149.263431,97.8999443 146.901702,97.0348924 145.208868,95.3008654 C143.516034,93.5688001 142.668636,91.1089926 142.668636,87.9194815 L142.668636,67.6603975 L149.757746,67.6603975 L149.757746,86.2639173 C149.757746,88.1548698 150.220677,89.5926998 151.146537,90.5774074 C152.070436,91.5601535 153.339571,92.0544688 154.953942,92.0544688 C157.003782,92.0544688 158.608345,91.3639966 159.767633,89.9850136 C160.930843,88.6079922 161.511467,86.5208829 161.511467,83.7256471 L161.511467,67.6603975 Z M116.787695,82.483974 L128.009831,82.483974 L127.478246,80.7126772 C126.140456,76.4599958 125.047862,72.8860172 124.202426,69.9907414 C123.353067,67.0974272 122.831289,65.2770912 122.637094,64.5277719 L122.399744,63.3449458 C122.0447,65.3163226 120.351866,71.1245282 117.319281,80.7715243 L116.787695,82.483974 Z M132.735251,97.605709 L129.900784,88.5687608 L114.839858,88.5687608 L112.003429,97.605709 L104.206192,97.605709 L117.674325,57.7956673 L127.303667,57.7956673 L140.767876,97.605709 L132.735251,97.605709 Z M173.677118,27.0382663 L173.677118,26.1516371 C173.596694,24.2234149 173.076878,22.6776985 172.111786,21.5164497 C171.146694,20.3532393 169.738287,19.7726149 167.888528,19.7726149 C166.191771,19.7726149 164.724517,20.3924707 163.484806,21.6341439 C162.245094,22.8738554 161.446736,24.6745757 161.091692,27.0382663 L173.677118,27.0382663 Z M178.520232,36.6656467 L178.520232,42.807319 C176.435084,44.1078392 173.422114,44.7571185 169.483284,44.7571185 C164.712748,44.7571185 160.954382,43.3408658 158.196416,40.5044371 C155.440411,37.6699699 154.06339,34.0077207 154.06339,29.519651 C154.06339,24.755 155.361949,21.0123265 157.961028,18.2955535 C160.560106,15.5787805 163.808465,14.2194133 167.711987,14.2194133 C171.609624,14.2194133 174.701057,15.4022393 176.986285,17.7659299 C179.269551,20.1276589 180.411184,23.5741355 180.411184,28.1014367 C180.411184,29.2038384 180.273874,30.6220527 179.997293,32.3541181 L161.209386,32.3541181 C161.721355,34.5196902 162.794333,36.1732928 164.42832,37.314926 C166.064269,38.4585207 168.106262,39.0273757 170.546454,39.0273757 C173.696734,39.0273757 176.35466,38.2407865 178.520232,36.6656467 L178.520232,36.6656467 Z M143.147259,44.4628832 L150.234407,44.4628832 L150.234407,14.5156102 L143.147259,14.5156102 L143.147259,44.4628832 Z M142.437171,5.53947069 C142.437171,4.35664462 142.851062,3.35232132 143.678844,2.5265008 C144.504665,1.6987187 145.508988,1.28482766 146.691814,1.28482766 C147.872678,1.28482766 148.877002,1.6987187 149.702822,2.5265008 C150.528643,3.35232132 150.942534,4.35664462 150.942534,5.53947069 C150.942534,6.75956657 150.528643,7.78154399 149.702822,8.60932608 C148.877002,9.43514661 147.872678,9.84903765 146.691814,9.84903765 C145.508988,9.84903765 144.504665,9.43514661 143.678844,8.60932608 C142.851062,7.78154399 142.437171,6.75956657 142.437171,5.53947069 L142.437171,5.53947069 Z M113.79238,38.2604022 L119.049384,38.2604022 C123.221642,38.2604022 126.393499,36.9716514 128.559071,34.3921882 C130.724643,31.8127251 131.807429,28.3584022 131.807429,24.0252964 C131.807429,20.2061217 130.655988,17.0656498 128.351144,14.6038808 C126.048262,12.1440733 122.907791,10.9141696 118.93169,10.9141696 L113.79238,10.9141696 L113.79238,38.2604022 Z M106.173646,4.65284153 L119.167079,4.65284153 C125.112594,4.65284153 129.975323,6.48298535 133.757228,10.1452346 C137.537172,13.8074838 139.426163,18.4348249 139.426163,24.0252964 C139.426163,30.1296989 137.596019,35.0610833 133.93377,38.8214109 C130.273482,42.5817386 125.347982,44.4628832 119.167079,44.4628832 L106.173646,44.4628832 L106.173646,4.65284153 Z M37.4755785,18.9134477 L33.536748,46.6873024 L20.2157334,46.6873024 L35.0098863,3.55240135 L46.9872263,3.55240135 L61.7813792,46.6873024 L48.4603645,46.6873024 L44.5195725,18.9134477 L37.4755785,18.9134477 Z M42.2637683,21.5125266 L46.2045603,49.2961891 L65.4240127,49.2961891 L48.8448321,0.953322505 L33.1522805,0.953322505 L16.5730998,49.2961891 L35.7925523,49.2961891 L39.7333443,21.5125266 L42.2637683,21.5125266 Z M55.3454715,95.0046685 L50.8515171,63.4410627 L67.5366225,63.4410627 L78.3625215,95.0125148 L55.3454715,95.0046685 Z M69.3942283,60.845907 L47.8581629,60.845907 L53.0916288,97.605709 L81.9973087,97.605709 L69.3942283,60.845907 Z M26.651641,95.0046685 L31.1455955,63.4410627 L14.4604901,63.4410627 L3.63459109,95.0125148 L26.651641,95.0046685 Z M12.6028843,60.845907 L34.1389497,60.845907 L28.9054838,97.605709 L-0.000196156894,97.605709 L12.6028843,60.845907 Z" id="Fill-3" fill="#1A1A18" mask="url(#mask-2)"></path>
            </g>
        </g>
    </g>
</svg>